<?xml version="1.0" encoding="UTF-8"?>
<!-- https://github.com/Riesi/frog_emojis/blob/master/svg/U1f60e-frogSunglasses.svg -->
<svg xmlns="http://www.w3.org/2000/svg" xmlns:xlink="http://www.w3.org/1999/xlink" width="720" height="720" viewBox="0 0 720 720">
<path fill-rule="nonzero" fill="rgb(77.647059%, 89.803922%, 70.196078%)" fill-opacity="1" d="M 720.003906 440.003906 C 720.003906 589.125 558.820312 680.003906 360.003906 680.003906 C 161.183594 680.003906 0.00390625 589.125 0.00390625 440.003906 L 720.003906 440.003906 "/>
<path fill-rule="nonzero" fill="rgb(46.666667%, 69.803922%, 33.333333%)" fill-opacity="1" d="M 635.101562 253.519531 C 662.460938 231.519531 680 197.820312 680 160 C 680 93.738281 626.28125 40 560 40 C 502.78125 40 455 80.101562 443 133.699219 C 417.21875 124.039062 389.320312 118.539062 360 118.539062 C 330.699219 118.539062 302.78125 124.039062 277.019531 133.699219 C 265 80.101562 217.21875 40 160 40 C 93.738281 40 40 93.738281 40 160 C 40 197.820312 57.558594 231.519531 84.898438 253.519531 C 32 307.121094 0 373.699219 0 440 C 0 589.121094 161.179688 460 360 460 C 558.839844 460 720 589.121094 720 440 C 720 373.699219 688.019531 307.121094 635.101562 253.519531 "/>
<path fill-rule="nonzero" fill="rgb(100%, 100%, 100%)" fill-opacity="1" d="M 220.003906 150.003906 C 220.003906 188.664062 188.660156 220.003906 150.003906 220.003906 C 111.34375 220.003906 80.003906 188.664062 80.003906 150.003906 C 80.003906 111.34375 111.34375 80.003906 150.003906 80.003906 C 188.660156 80.003906 220.003906 111.34375 220.003906 150.003906 "/>
<path fill-rule="nonzero" fill="rgb(16.078431%, 18.431373%, 20%)" fill-opacity="1" d="M 180.003906 150.003906 C 180.003906 166.585938 166.582031 180.003906 150.003906 180.003906 C 133.421875 180.003906 120.003906 166.585938 120.003906 150.003906 C 120.003906 133.425781 133.421875 120.003906 150.003906 120.003906 C 166.582031 120.003906 180.003906 133.425781 180.003906 150.003906 "/>
<path fill-rule="nonzero" fill="rgb(100%, 100%, 100%)" fill-opacity="1" d="M 640.003906 150.003906 C 640.003906 188.664062 608.683594 220.003906 570.003906 220.003906 C 531.320312 220.003906 500.003906 188.664062 500.003906 150.003906 C 500.003906 111.34375 531.320312 80.003906 570.003906 80.003906 C 608.683594 80.003906 640.003906 111.34375 640.003906 150.003906 "/>
<path fill-rule="nonzero" fill="rgb(16.078431%, 18.431373%, 20%)" fill-opacity="1" d="M 600.003906 150.003906 C 600.003906 166.585938 586.5625 180.003906 570.003906 180.003906 C 553.441406 180.003906 540.003906 166.585938 540.003906 150.003906 C 540.003906 133.425781 553.441406 120.003906 570.003906 120.003906 C 586.5625 120.003906 600.003906 133.425781 600.003906 150.003906 "/>
<path fill-rule="nonzero" fill="rgb(36.078431%, 56.862745%, 23.137255%)" fill-opacity="1" d="M 300.003906 400.003906 C 300.003906 411.0625 291.042969 420.003906 280.003906 420.003906 C 268.960938 420.003906 260.003906 411.0625 260.003906 400.003906 C 260.003906 388.945312 268.960938 380.003906 280.003906 380.003906 C 291.042969 380.003906 300.003906 388.945312 300.003906 400.003906 "/>
<path fill-rule="nonzero" fill="rgb(36.078431%, 56.862745%, 23.137255%)" fill-opacity="1" d="M 460.003906 400.003906 C 460.003906 411.0625 451.0625 420.003906 440.003906 420.003906 C 428.941406 420.003906 420.003906 411.0625 420.003906 400.003906 C 420.003906 388.945312 428.941406 380.003906 440.003906 380.003906 C 451.0625 380.003906 460.003906 388.945312 460.003906 400.003906 "/>
<path fill-rule="evenodd" fill="rgb(16.078431%, 18.431373%, 20%)" fill-opacity="1" d="M 4.113281 106.238281 C 9.324219 111.425781 27.078125 127.027344 32.289062 142.589844 C 37.496094 158.148438 47.914062 257.765625 79.125 283.765625 C 111.328125 310.503906 232.710938 300.539062 255.976562 288.972656 C 307.996094 263.039062 314.378906 179.265625 323.582031 142.589844 C 328.765625 121.820312 359.976562 121.820312 359.976562 121.820312 C 359.976562 121.820312 391.207031 121.820312 396.390625 142.566406 C 405.59375 179.265625 412.019531 263.277344 463.996094 289.167969 C 487.28125 300.78125 608.664062 310.742188 640.914062 284.003906 C 672.058594 258.023438 682.476562 158.148438 687.683594 142.566406 C 692.851562 127.007812 710.648438 111.425781 715.859375 106.238281 C 721.085938 101.050781 721.085938 80.28125 715.859375 75.074219 C 705.460938 64.699219 590.957031 55.453125 458.808594 69.886719 C 432.441406 72.773438 422.414062 80.28125 359.976562 80.28125 C 297.578125 80.28125 287.507812 72.773438 261.164062 69.90625 C 129.058594 55.453125 14.511719 64.699219 4.113281 75.074219 C -1.074219 80.28125 -1.074219 101.050781 4.113281 106.238281 "/>
</svg>
