<?xml version="1.0" encoding="UTF-8" standalone="no"?>
<svg xmlns:dc="http://purl.org/dc/elements/1.1/" xmlns:cc="http://creativecommons.org/ns#" xmlns:rdf="http://www.w3.org/1999/02/22-rdf-syntax-ns#" xmlns:svg="http://www.w3.org/2000/svg" xmlns="http://www.w3.org/2000/svg" id="svg4542" version="1.1" viewBox="0 0 4.2333332 4.2333332" height="16" width="16">
  <defs id="defs4536"/>
  <metadata id="metadata4539">
    <rdf:RDF>
      <cc:Work rdf:about="">
        <dc:format>image/svg+xml</dc:format>
        <dc:type rdf:resource="http://purl.org/dc/dcmitype/StillImage"/>
        <dc:title/>
      </cc:Work>
    </rdf:RDF>
  </metadata>
  <g transform="translate(0,-292.76667)" id="layer1">
    <path id="path13805" d="m 3.7124547,293.29678 c 0.1412992,0 0.2562986,0.11297 0.2562986,0.2563 v 0.0165 c 0,1.74963 -1.424292,3.16672 -3.17498208,3.16672 h -0.01 c -0.14419918,0 -0.25629855,-0.118 -0.25629855,-0.26458 v -0.26459 -0.52916 c 0,-0.14658 0.11799934,-0.26459 0.26449851,-0.26459 H 1.3211682 c 0.1465992,0 0.2645985,0.11801 0.2645985,0.26459 v 0.12402 c 0.6764962,-0.23915 1.2077932,-0.77043 1.4468919,-1.44693 H 2.9086593 c -0.1465992,0 -0.2645985,-0.118 -0.2645985,-0.26458 v -0.52917 c 0,-0.14657 0.1179993,-0.26457 0.2645985,-0.26457 h 0.2645985 0.2645985 0.2562985 0.01 0.01 z" style="opacity:1;fill:#2e3436;fill-opacity:1;stroke:none;stroke-width:0.17638887"/>
    <path style="color:#bebebe;display:inline;overflow:visible;visibility:visible;fill:#2e3436;fill-opacity:1;stroke:none;stroke-width:0.17638887;marker:none" d="m 0.79367122,292.76757 v 0.79374 H -2.429749e-5 v 0.52917 H 0.79367122 v 0.79375 H 1.3228682 v -0.79375 h 0.7936955 v -0.52917 H 1.3228682 v -0.79374 z" id="path13807"/>
  </g>
</svg>